mtllib dockout_route.mtl
usemtl dockout_material
o dockout_route

v 455.430005 420.701415 104.044358
v 455.435670 420.101442 104.044358
v 457.429915 420.720300 104.052364
v 457.435581 420.120326 104.052364
f 1 2 3
f 2 4 3
v 458.429871 420.729742 104.056367
v 458.435536 420.129769 104.056367
v 460.429782 420.748627 104.064374
v 460.435447 420.148654 104.064374
f 5 6 7
f 6 8 7
v 461.429737 420.758069 104.068377
v 461.435402 420.158096 104.068377
v 463.429648 420.776954 104.076383
v 463.435313 420.176981 104.076383
f 9 10 11
f 10 12 11
v 464.429603 420.786396 104.080386
v 464.435269 420.186423 104.080386
v 466.429514 420.805281 104.088392
v 466.435180 420.205308 104.088392
f 13 14 15
f 14 16 15
v 467.429470 420.814723 104.092396
v 467.435135 420.214750 104.092396
v 469.429380 420.833608 104.100402
v 469.435046 420.233635 104.100402
f 17 18 19
f 18 20 19
v 470.429336 420.843050 104.104405
v 470.435001 420.243077 104.104405
v 472.429247 420.861935 104.112411
v 472.434912 420.261962 104.112411
f 21 22 23
f 22 24 23
v 473.429202 420.871377 104.116414
v 473.434867 420.271404 104.116414
v 475.429113 420.890262 104.124421
v 475.434778 420.290289 104.124421
f 25 26 27
f 26 28 27
v 476.429068 420.899705 104.128424
v 476.434734 420.299731 104.128424
v 478.428979 420.918589 104.136430
v 478.434645 420.318616 104.136430
f 29 30 31
f 30 32 31
v 479.428935 420.928032 104.140433
v 479.434600 420.328058 104.140433
v 481.428845 420.946916 104.148439
v 481.434511 420.346943 104.148439
f 33 34 35
f 34 36 35
v 482.428801 420.956359 104.152443
v 482.434466 420.356385 104.152443
v 484.428712 420.975243 104.160449
v 484.434377 420.375270 104.160449
f 37 38 39
f 38 40 39
v 485.428667 420.984686 104.164452
v 485.434333 420.384712 104.164452
v 487.428578 421.003570 104.172458
v 487.434243 420.403597 104.172458
f 41 42 43
f 42 44 43
v 488.428533 421.013013 104.176461
v 488.434199 420.413040 104.176461
v 490.428444 421.031898 104.184468
v 490.434110 420.431924 104.184468
f 45 46 47
f 46 48 47
v 491.428400 421.041340 104.188471
v 491.434065 420.441367 104.188471
v 493.428310 421.060225 104.196477
v 493.433976 420.460251 104.196477
f 49 50 51
f 50 52 51
v 494.428266 421.069667 104.200480
v 494.433931 420.469694 104.200480
v 496.428177 421.088552 104.208486
v 496.433842 420.488578 104.208486
f 53 54 55
f 54 56 55
v 497.428132 421.097994 104.212490
v 497.433798 420.498021 104.212490
v 499.428043 421.116879 104.220496
v 499.433708 420.516905 104.220496
f 57 58 59
f 58 60 59
v 500.427998 421.126321 104.224499
v 500.433664 420.526348 104.224499
v 502.427909 421.145206 104.232505
v 502.433575 420.545233 104.232505
f 61 62 63
f 62 64 63
v 503.427865 421.154648 104.236508
v 503.433530 420.554675 104.236508
v 503.440902 421.154771 104.236560
v 503.446568 420.554798 104.236560
f 65 66 67
f 66 68 67
v 503.743716 420.858189 104.236560
v 503.143754 420.851380 104.236560
v 503.766414 418.858318 104.087344
v 503.166452 418.851509 104.087344
f 69 70 71
f 70 72 71
v 503.777763 417.858383 104.012736
v 503.177802 417.851573 104.012736
v 503.800461 415.858511 103.863520
v 503.200500 415.851702 103.863520
f 73 74 75
f 74 76 75
v 503.811810 414.858576 103.788912
v 503.211849 414.851766 103.788912
v 503.834509 412.858705 103.639696
v 503.234547 412.851895 103.639696
f 77 78 79
f 78 80 79
v 503.845858 411.858769 103.565088
v 503.245896 411.851960 103.565088
v 503.868556 409.858898 103.415872
v 503.268595 409.852088 103.415872
f 81 82 83
f 82 84 83
v 503.879905 408.858962 103.341264
v 503.279944 408.852153 103.341264
v 503.902603 406.859091 103.192048
v 503.302642 406.852282 103.192048
f 85 86 87
f 86 88 87
v 503.913952 405.859155 103.117440
v 503.313991 405.852346 103.117440
v 503.936651 403.859284 102.968223
v 503.336689 403.852475 102.968223
f 89 90 91
f 90 92 91
v 503.948000 402.859349 102.893615
v 503.348038 402.852539 102.893615
v 503.970698 400.859477 102.744399
v 503.370737 400.852668 102.744399
f 93 94 95
f 94 96 95
v 503.982047 399.859542 102.669791
v 503.382086 399.852732 102.669791
v 504.004745 397.859671 102.520575
v 503.404784 397.852861 102.520575
f 97 98 99
f 98 100 99
v 504.016095 396.859735 102.445967
v 503.416133 396.852926 102.445967
v 504.038793 394.859864 102.296751
v 503.438831 394.853054 102.296751
f 101 102 103
f 102 104 103
v 504.050142 393.859928 102.222143
v 503.450181 393.853119 102.222143
v 504.072840 391.860057 102.072927
v 503.472879 391.853248 102.072927
f 105 106 107
f 106 108 107
v 504.084189 390.860121 101.998319
v 503.484228 390.853312 101.998319
v 504.106887 388.860250 101.849102
v 503.506926 388.853441 101.849102
f 109 110 111
f 110 112 111
v 504.118237 387.860315 101.774494
v 503.518275 387.853505 101.774494
v 504.140935 385.860443 101.625278
v 503.540973 385.853634 101.625278
f 113 114 115
f 114 116 115
v 504.152284 384.860508 101.550670
v 503.552323 384.853698 101.550670
v 504.174982 382.860637 101.401454
v 503.575021 382.853827 101.401454
f 117 118 119
f 118 120 119
v 504.186331 381.860701 101.326846
v 503.586370 381.853892 101.326846
v 504.209030 379.860830 101.177630
v 503.609068 379.854020 101.177630
f 121 122 123
f 122 124 123
v 504.220379 378.860894 101.103022
v 503.620417 378.854085 101.103022
v 504.243077 376.861023 100.953806
v 503.643116 376.854214 100.953806
f 125 126 127
f 126 128 127
v 504.254426 375.861088 100.879198
v 503.654465 375.854278 100.879198
v 504.277124 373.861216 100.729981
v 503.677163 373.854407 100.729981
f 129 130 131
f 130 132 131
v 504.288473 372.861281 100.655373
v 503.688512 372.854471 100.655373
v 504.311172 370.861410 100.506157
v 503.711210 370.854600 100.506157
f 133 134 135
f 134 136 135
v 504.322521 369.861474 100.431549
v 503.722559 369.854664 100.431549
v 504.345219 367.861603 100.282333
v 503.745258 367.854793 100.282333
f 137 138 139
f 138 140 139
v 504.356568 366.861667 100.207725
v 503.756607 366.854858 100.207725
v 504.379266 364.861796 100.058509
v 503.779305 364.854986 100.058509
f 141 142 143
f 142 144 143
v 504.390616 363.861860 99.983901
v 503.790654 363.855051 99.983901
v 504.413314 361.861989 99.834685
v 503.813352 361.855180 99.834685
f 145 146 147
f 146 148 147
v 504.424663 360.862054 99.760077
v 503.824702 360.855244 99.760077
v 504.447361 358.862182 99.610860
v 503.847400 358.855373 99.610860
f 149 150 151
f 150 152 151
v 504.458710 357.862247 99.536252
v 503.858749 357.855437 99.536252
v 504.481408 355.862376 99.387036
v 503.881447 355.855566 99.387036
f 153 154 155
f 154 156 155
v 504.492758 354.862440 99.312428
v 503.892796 354.855631 99.312428
v 504.515456 352.862569 99.163212
v 503.915494 352.855759 99.163212
f 157 158 159
f 158 160 159
v 504.526805 351.862633 99.088604
v 503.926844 351.855824 99.088604
v 504.549503 349.862762 98.939388
v 503.949542 349.855953 98.939388
f 161 162 163
f 162 164 163
v 504.560852 348.862826 98.864780
v 503.960891 348.856017 98.864780
v 504.583551 346.862955 98.715564
v 503.983589 346.856146 98.715564
f 165 166 167
f 166 168 167
v 504.594900 345.863020 98.640956
v 503.994938 345.856210 98.640956
v 504.617598 343.863148 98.491739
v 504.017637 343.856339 98.491739
f 169 170 171
f 170 172 171
v 504.628947 342.863213 98.417131
v 504.028986 342.856403 98.417131
v 504.651645 340.863342 98.267915
v 504.051684 340.856532 98.267915
f 173 174 175
f 174 176 175
v 504.662994 339.863406 98.193307
v 504.063033 339.856597 98.193307
v 504.685693 337.863535 98.044091
v 504.085731 337.856725 98.044091
f 177 178 179
f 178 180 179
v 504.697042 336.863599 97.969483
v 504.097080 336.856790 97.969483
v 504.718648 334.959971 97.827448
v 504.118686 334.953161 97.827448
f 181 182 183
f 182 184 183
v 504.430370 334.656794 97.827448
v 504.406964 335.256338 97.827448
v 502.431892 334.578774 97.863347
v 502.408486 335.178318 97.863347
f 185 186 187
f 186 188 187
v 501.432654 334.539764 97.881297
v 501.409248 335.139308 97.881297
v 499.434176 334.461744 97.917197
v 499.410770 335.061287 97.917197
f 189 190 191
f 190 192 191
v 498.434937 334.422734 97.935147
v 498.411531 335.022277 97.935147
v 496.436459 334.344714 97.971046
v 496.413053 334.944257 97.971046
f 193 194 195
f 194 196 195
v 495.437221 334.305704 97.988996
v 495.413815 334.905247 97.988996
v 493.438743 334.227684 98.024896
v 493.415337 334.827227 98.024896
f 197 198 199
f 198 200 199
v 492.439504 334.188674 98.042846
v 492.416098 334.788217 98.042846
v 490.441027 334.110654 98.078745
v 490.417621 334.710197 98.078745
f 201 202 203
f 202 204 203
v 489.441788 334.071644 98.096695
v 489.418382 334.671187 98.096695
v 487.443310 333.993624 98.132595
v 487.419904 334.593167 98.132595
f 205 206 207
f 206 208 207
v 486.444071 333.954614 98.150545
v 486.420665 334.554157 98.150545
v 484.445594 333.876593 98.186444
v 484.422188 334.476137 98.186444
f 209 210 211
f 210 212 211
v 483.446355 333.837583 98.204394
v 483.422949 334.437127 98.204394
v 481.447877 333.759563 98.240294
v 481.424471 334.359107 98.240294
f 213 214 215
f 214 216 215
v 480.448638 333.720553 98.258244
v 480.425232 334.320097 98.258244
v 478.450161 333.642533 98.294143
v 478.426755 334.242076 98.294143
f 217 218 219
f 218 220 219
v 477.450922 333.603523 98.312093
v 477.427516 334.203066 98.312093
v 475.452444 333.525503 98.347993
v 475.429038 334.125046 98.347993
f 221 222 223
f 222 224 223
v 474.453205 333.486493 98.365942
v 474.429799 334.086036 98.365942
v 472.454728 333.408473 98.401842
v 472.431322 334.008016 98.401842
f 225 226 227
f 226 228 227
v 471.455489 333.369463 98.419792
v 471.432083 333.969006 98.419792
v 469.457011 333.291443 98.455692
v 469.433605 333.890986 98.455692
f 229 230 231
f 230 232 231
v 468.457773 333.252433 98.473641
v 468.434367 333.851976 98.473641
v 466.459295 333.174413 98.509541
v 466.435889 333.773956 98.509541
f 233 234 235
f 234 236 235
v 465.460056 333.135402 98.527491
v 465.436650 333.734946 98.527491
v 463.461578 333.057382 98.563390
v 463.438172 333.656926 98.563390
f 237 238 239
f 238 240 239
v 462.462340 333.018372 98.581340
v 462.438934 333.617916 98.581340
v 460.463862 332.940352 98.617240
v 460.440456 333.539896 98.617240
f 241 242 243
f 242 244 243
v 459.464623 332.901342 98.635190
v 459.441217 333.500885 98.635190
v 457.466146 332.823322 98.671089
v 457.442740 333.422865 98.671089
f 245 246 247
f 246 248 247
v 456.466907 332.784312 98.689039
v 456.443501 333.383855 98.689039
v 454.468429 332.706292 98.724939
v 454.445023 333.305835 98.724939
f 249 250 251
f 250 252 251
v 453.469190 332.667282 98.742889
v 453.445784 333.266825 98.742889
v 451.470713 332.589262 98.778788
v 451.447307 333.188805 98.778788
f 253 254 255
f 254 256 255
v 450.471474 332.550252 98.796738
v 450.448068 333.149795 98.796738
v 448.472996 332.472232 98.832638
v 448.449590 333.071775 98.832638
f 257 258 259
f 258 260 259
